<?xml version="1.0" encoding="utf-8"?>
<!-- Generator: Adobe Illustrator 18.1.1, SVG Export Plug-In . SVG Version: 6.00 Build 0)  -->
<svg version="1.1" id="Layer_1" xmlns="http://www.w3.org/2000/svg" xmlns:xlink="http://www.w3.org/1999/xlink" x="0px" y="0px"
	 viewBox="0 9.7 34 14.7" enable-background="new 0 9.7 34 14.7" xml:space="preserve">
<g>
	<g>
		<path fill="#FFFFFF" d="M11.5,13.7c0-0.8,0.7-1.5,2-1.5c0.9,0,1.7,0.2,2.3,0.4c0.1,0,0.1,0,0.1-0.1l-0.5-2.3c0,0,0-0.1-0.1-0.1
			c-0.6-0.1-1.2-0.2-1.9-0.2c-2.7,0-4.7,1.4-4.7,3.8c0,4.3,5.9,3.6,5.9,6.3c0,1-0.8,1.6-2.2,1.6c-1,0-2.1-0.2-3-0.6
			c-0.1,0-0.1,0-0.1,0.1l-0.5,2.1c0,0,0,0.1,0.1,0.1c0.9,0.3,2.2,0.6,3.4,0.6c3.3,0,5.1-1.7,5.1-4.1C17.4,15.5,11.5,16.1,11.5,13.7z
			"/>
	</g>
	<g>
		<path fill="#F58220" d="M30.5,10.2C30.5,10.2,30.5,10.1,30.5,10.2l2.7-0.1c0.1,0,0.1,0.1,0.1,0.1l-3.1,13.6c0,0,0,0.1-0.1,0.1h-2
			c-0.1,0-0.1-0.1-0.1-0.1L30.5,10.2z"/>
	</g>
	<g>
		<path fill="#FFFFFF" d="M9.1,10.1H0.8c0,0-0.1,0-0.1,0.1v13.6c0,0,0,0.1,0.1,0.1h2.6c0,0,0.1,0,0.1-0.1v-5.6h4.1
			c0,0,0.1,0,0.1-0.1V16c0,0,0-0.1-0.1-0.1H3.5v-3.5h4.1c0,0,0.1,0,0.1-0.1c0.2-0.9,0.8-1.6,1.5-2.1C9.2,10.2,9.2,10.1,9.1,10.1z"/>
	</g>
	<g>
		<path fill="#FFFFFF" d="M27.8,17l-1.2-6.8c0,0,0-0.1-0.1-0.1h-3.1c0,0-0.1,0-0.1,0.1l-2,10.5l-1.9-10.5c0,0,0-0.1-0.1-0.1h-2.7
			c0,0-0.1,0-0.1,0.1l3.1,13.6c0,0,0,0,0.1,0h3c0,0,0,0,0.1,0l2-9.8l0,0l0,0l1.8,8.6c0,0.1,0.1,0.1,0.1,0L27.8,17L27.8,17z"/>
	</g>
</g>
</svg>
